<svg xmlns="http://www.w3.org/2000/svg" viewBox="0 0 512 512" id="crown">
  <rect width="477" height="45" x="17.5" y="392.5" fill="#fed030" rx="22.5"></rect>
  <path fill="#f8be32" d="M472 392.5h-15a22.5 22.5 0 0 1 22.5 22.5 22.5 22.5 0 0 1-22.5 22.5h15a22.5 22.5 0 0 0 22.5-22.5 22.5 22.5 0 0 0-22.5-22.5Z"></path>
  <path fill="#fed030" d="M45.25 392.5q-9.37-52.1-18.77-104.19L7.5 201l67.75 28.5-.2.36a24 24 0 1 0 36.41 0l-.21-.36q6.72-38.7 13.45-77.41l45.55 65.41a31.45 31.45 0 0 0-1.34 13.63c2 15.63 15.62 23.73 17.22 24.65a36.35 36.35 0 0 0 38.63-1.78c15.73-11.12 15.13-30.24 15-32.31-.76-15.48-11.21-29.43-26.63-35.69l42.61-111.5h.52L298.84 186c-15.42 6.26-25.87 20.21-26.63 35.69-.1 2.07-.7 21.19 15 32.31a36.35 36.35 0 0 0 38.63 1.77c1.6-.92 15.22-9 17.22-24.65a31.45 31.45 0 0 0-1.34-13.63l45.55-65.41q6.72 38.7 13.45 77.41l-.21.36a24 24 0 1 0 36.41 0l-.2-.36L504.5 201l-19 87.36q-9.39 52.1-18.77 104.19Z"></path>
  <path fill="#f8be32" d="M219.48 189.17a42 42 0 0 0-4.95-6.74c-.46 1.19-.91 2.39-1.37 3.58a46 46 0 0 1 6.32 3.16zm166.27 25.33-.21.36A24 24 0 0 0 396 253.22a24 24 0 0 1 4.52-23.36l.21-.36q-6.73-38.7-13.43-77.41-4.95 7.13-9.92 14.24zM283.84 171c-15.42 6.26-25.87 20.21-26.63 35.69-.1 2.07-.7 21.19 15 32.31a34.85 34.85 0 0 0 4.32 2.6 42.23 42.23 0 0 1-4.35-19.91c.76-15.48 11.21-29.43 26.63-35.69L256.26 74.5h-.52L251.36 86z"></path>
  <path fill="#f8be32" d="M484.4 209.42q-6.94 32-13.88 63.89l-15.81 87.74A20 20 0 0 1 435 377.5H42.55l2.7 15h421.5l18.77-104.19 19-87.36zm-329.15-6.92a31.45 31.45 0 0 0-1.34 13.63c2 15.63 15.62 23.73 17.22 24.65.34.19.68.36 1 .54a29.84 29.84 0 0 1-3.25-10.19 31.45 31.45 0 0 1 1.34-13.63l-45.52-65.41-.91 5.23zM54.47 233.74a24 24 0 0 0 16.06 19.48 24 24 0 0 1 4.52-23.36l.2-.36L56 221.41a24 24 0 0 0-1.53 12.33z"></path>
  <circle cx="256" cy="324" r="32.5" fill="#eb304a"></circle>
  <path fill="#e4222e" d="M256 291.5a32.55 32.55 0 0 0-7.5.88 32.5 32.5 0 0 1 0 63.24 32.5 32.5 0 1 0 7.5-64.12Z"></path>
  <circle cx="427" cy="324" r="15" fill="#eb304a"></circle>
  <path fill="#e4222e" d="M427 309a14.94 14.94 0 0 0-3.23.36 15 15 0 0 1 0 29.28A15 15 0 1 0 427 309Z"></path>
  <circle cx="85" cy="324" r="15" fill="#eb304a"></circle>
  <path fill="#1cabe1" d="M166 357.79 140.19 324 166 290.21 191.81 324 166 357.79z"></path>
  <path fill="#199ad5" d="m166 290.21-7.5 9.79 13.68 17.9a10 10 0 0 1 0 12.14L158.5 348l7.5 9.82L191.81 324Z"></path>
  <path fill="#1cabe1" d="M346 357.79 320.19 324 346 290.21 371.81 324 346 357.79z"></path>
  <path fill="#199ad5" d="m346 290.21-7.5 9.79 13.68 17.9a10 10 0 0 1 0 12.14L338.5 348l7.5 9.82L371.81 324Z"></path>
  <path fill="#e4222e" d="M85 309a14.94 14.94 0 0 0-3.23.36 15 15 0 0 1 0 29.28A15 15 0 1 0 85 309Z"></path>
  <path d="M85 301.5a22.5 22.5 0 1 0 22.5 22.5A22.52 22.52 0 0 0 85 301.5Zm0 30a7.5 7.5 0 1 1 7.5-7.5 7.5 7.5 0 0 1-7.5 7.5Zm55.19-100.67a7.5 7.5 0 1 0-7.5-7.5 7.5 7.5 0 0 0 7.5 7.5Zm-97.06 5.87a7.5 7.5 0 1 0 7.5 7.5 7.5 7.5 0 0 0-7.5-7.5Zm425.74 0a7.5 7.5 0 1 0 7.5 7.5 7.5 7.5 0 0 0-7.5-7.5Zm43-34.16a7.5 7.5 0 0 0-10.24-8.5l-67.76 28.55a7.49 7.49 0 0 0-3.6 10.62l.21.36a6.44 6.44 0 0 0 .83 1.18 16.5 16.5 0 1 1-25 0 8.08 8.08 0 0 0 .83-1.18l.21-.36a7.56 7.56 0 0 0 .87-5l-13.53-77.41a7.49 7.49 0 0 0-13.54-3l-45.56 65.41a7.52 7.52 0 0 0-1 6.6 23.85 23.85 0 0 1 1 10.37c-1.52 11.9-12.29 18.4-13.51 19.1a29 29 0 0 1-30.58-1.39c-12.33-8.72-11.94-24.1-11.86-25.83.62-12.51 9.24-23.93 22-29.1a7.5 7.5 0 0 0 4.19-9.62L263.27 71.82a7.51 7.51 0 0 0-7-4.82h-.52a7.51 7.51 0 0 0-7 4.82l-42.6 111.52a7.5 7.5 0 0 0 4.19 9.62c12.72 5.17 21.34 16.59 22 29.1.08 1.73.47 17.11-11.86 25.83a29 29 0 0 1-30.58 1.39c-1.22-.7-12-7.2-13.51-19.1a23.85 23.85 0 0 1 1-10.37 7.52 7.52 0 0 0-1-6.6l-45.54-65.41a7.49 7.49 0 0 0-13.54 3l-13.45 77.42a7.56 7.56 0 0 0 .87 5l.21.36a8.08 8.08 0 0 0 .83 1.18 16.5 16.5 0 1 1-25 0 6.44 6.44 0 0 0 .83-1.18l.21-.36a7.49 7.49 0 0 0-3.6-10.62L10.41 194a7.5 7.5 0 0 0-10.24 8.5l19 87.24 17.2 95.45A30 30 0 0 0 40 445h432a30 30 0 0 0 3.68-59.77l17.2-95.45ZM487 415a15 15 0 0 1-15 15H40a15 15 0 0 1 0-30h432a15 15 0 0 1 15 15Zm-8.86-128-17.66 98h-409l-17.62-98v-.26L17.9 213.47 64.33 233a31.49 31.49 0 1 0 54.86-5.41l9.81-56.25 33.14 47.58a38.39 38.39 0 0 0-.63 13.16c2.39 18.7 17.85 28.45 20.93 30.21a43.58 43.58 0 0 0 46.69-2.16c18.48-13.06 18.39-34.61 18.19-38.8-.78-16-10.24-30.66-24.68-39L256 94.84l33.4 87.46c-14.44 8.37-23.9 23-24.68 39-.2 4.19-.29 25.74 18.19 38.8a43.58 43.58 0 0 0 46.69 2.16c3.08-1.76 18.54-11.51 20.93-30.21a38.39 38.39 0 0 0-.63-13.16l33.1-47.55 9.77 56.28a31.51 31.51 0 1 0 54.9 5.38l46.43-19.56-15.91 73.25c-.02.12-.04.21-.05.31ZM427 301.5a22.5 22.5 0 1 0 22.5 22.5 22.52 22.52 0 0 0-22.5-22.5Zm0 30a7.5 7.5 0 1 1 7.5-7.5 7.5 7.5 0 0 1-7.5 7.5ZM256 284a40 40 0 1 0 40 40 40 40 0 0 0-40-40Zm0 65a25 25 0 1 1 25-25 25 25 0 0 1-25 25Zm115.81-118.17a7.5 7.5 0 1 0-7.5-7.5 7.5 7.5 0 0 0 7.5 7.5ZM352 285.65a7.51 7.51 0 0 0-11.92 0l-25.81 33.8a7.5 7.5 0 0 0 0 9.1l25.73 33.8a7.51 7.51 0 0 0 11.92 0l25.81-33.8a7.5 7.5 0 0 0 0-9.1Zm-6 59.79L329.63 324 346 302.56 362.37 324ZM256 317a7.5 7.5 0 1 0 7.5 7.5 7.5 7.5 0 0 0-7.5-7.5Zm-84-31.35a7.51 7.51 0 0 0-11.92 0l-25.81 33.8a7.5 7.5 0 0 0 0 9.1l25.73 33.8a7.51 7.51 0 0 0 11.92 0l25.81-33.8a7.5 7.5 0 0 0 0-9.1Zm-6 59.79L149.63 324 166 302.56 182.37 324ZM256 178a7.5 7.5 0 1 0-7.5-7.5 7.5 7.5 0 0 0 7.5 7.5Z"></path>
</svg>
